<?xml version="1.0" standalone="no"?>
<!DOCTYPE svg PUBLIC "-//W3C//DTD SVG 20010904//EN"
 "http://www.w3.org/TR/2001/REC-SVG-20010904/DTD/svg10.dtd">
<svg version="1.0" xmlns="http://www.w3.org/2000/svg"
 width="700.000000pt" height="700.000000pt" viewBox="0 0 700.000000 700.000000"
 preserveAspectRatio="xMidYMid meet">
<metadata>
Created by potrace 1.11, written by Peter Selinger 2001-2013
</metadata>
<g transform="translate(0.000000,700.000000) scale(0.100000,-0.100000)"
fill="#000000" stroke="none">
<path d="M3002 4521 c-271 -273 -505 -508 -519 -523 l-27 -27 527 -527 527
-526 526 526 c526 525 527 526 508 547 -80 89 -1030 1029 -1038 1028 -6 -1
-233 -225 -504 -498z"/>
<path d="M714 4465 l-520 -523 527 -527 527 -527 521 521 c286 286 522 525
523 530 4 13 -1032 1051 -1047 1050 -5 -1 -244 -236 -531 -524z"/>
<path d="M5261 4470 c-287 -286 -521 -524 -521 -528 0 -4 236 -243 524 -531
l523 -523 528 527 527 528 -523 523 c-288 288 -527 524 -531 524 -3 0 -241
-234 -527 -520z"/>
<path d="M1856 3334 l-527 -527 523 -523 c288 -288 527 -524 531 -524 14 0
1049 1039 1045 1050 -2 8 -387 395 -916 923 l-129 129 -527 -528z"/>
<path d="M4122 3333 l-524 -526 524 -524 c287 -287 526 -523 530 -523 9 0
1048 1038 1048 1048 0 8 -1043 1052 -1050 1051 -3 0 -240 -237 -528 -526z"/>
</g>
</svg>
